<?xml version="1.0" encoding="UTF-8"?>
<svg width="120px" height="62px" viewBox="0 0 120 62" version="1.1" xmlns="http://www.w3.org/2000/svg" xmlns:xlink="http://www.w3.org/1999/xlink">
    <!-- Generator: Sketch 52.5 (67469) - http://www.bohemiancoding.com/sketch -->
    <title>Diaz Engenharia</title>
    <desc>Logo Diaz Engenharia</desc>
    <g id="Page-1" stroke="none" stroke-width="1" fill="none" fill-rule="evenodd">
        <g id="Group-15">
            <path d="M15.79664,0 C18.4112533,0 20.8806133,0.511466667 23.20472,1.53413333 C25.5288267,2.55706667 27.5533333,3.952 29.2781333,5.71866667 C31.0032,7.4856 32.3650667,9.5592 33.3634667,11.9397333 C34.3621333,14.3202667 34.8616,16.8496 34.8616,19.5274667 C34.8616,22.2056 34.3621333,24.7349333 33.3634667,27.1154667 C32.3650667,29.496 31.0032,31.5696 29.2781333,33.3365333 C27.5533333,35.1032 25.5288267,36.4980267 23.20472,37.5209067 C20.8806133,38.5437867 18.4112533,39.0552267 15.79664,39.0552267 L9.04221333,39.0552267 L11.7113067,32.36 L15.79664,32.36 C17.4670933,32.36 19.0649067,32.0346667 20.5901067,31.3837333 C22.1153067,30.7328 23.4770667,29.8122667 24.67544,28.6218667 C25.8374933,27.3944 26.7362667,26.0088 27.3717333,24.4653333 C28.0072,22.9216 28.3250667,21.2757333 28.3250667,19.5274667 C28.3250667,17.8165333 28.0072,16.18 27.3717333,14.6178667 C26.7362667,13.0554667 25.8374933,11.6608 24.67544,10.4333333 C23.4770667,9.24293333 22.1153067,8.3224 20.5901067,7.67146667 C19.0649067,7.02053333 17.4670933,6.6952 15.79664,6.6952 L6.53653333,6.6952 L6.53653333,22.8752 L6.53653333,32.36 L6.53653333,39.0552267 L0,39.0552267 L0,0 L15.79664,0 Z" id="Fill-1" fill="#A80000"></path>
            <polygon id="Fill-2" fill="#A80000" points="38.4021333 39.0552267 44.9386667 39.0552267 44.9386667 0.05576 38.4021333 0.05576"></polygon>
            <polygon id="Fill-3" fill="#A80000" points="72.0653333 0 89.2781333 39.0552267 82.088 39.0552267 79.1466667 32.36 76.2050667 25.6648 68.4704 8.14586667 60.7354667 25.6648 70.6490667 25.6648 73.5906667 32.36 57.7938667 32.36 54.8525333 39.0552267 47.6624 39.0552267 64.8752 0"></polygon>
            <polygon id="Fill-4" fill="#A80000" points="120 0 120 5.46773333 100.063467 32.36 120 32.36 120 39.0552267 95.0522667 39.0552267 90.9122667 39.0552267 90.9122667 33.5874667 110.8488 6.6952 90.9122667 6.6952 90.9122667 0"></polygon>
            <path d="M9.63218667,51.86648 L3.24325333,51.86648 C3.40581333,52.2403733 3.64154667,52.5736533 3.95042667,52.8662667 C4.29181333,53.20768 4.67384,53.4637067 5.09653333,53.6344 C5.5192,53.80512 5.96626667,53.8904533 6.43770667,53.8904533 C7.10424,53.8904533 7.69762667,53.7360267 8.21784,53.4271467 L11.266,54.6464 C10.6807467,55.3292 9.97357333,55.8616 9.14448,56.2436267 C8.31538667,56.62568 7.41312,56.8166933 6.43770667,56.8166933 C5.5436,56.8166933 4.70637333,56.6500533 3.92602667,56.3168 C3.14570667,55.98352 2.46290667,55.5242667 1.87768,54.9390133 C1.29242667,54.3537867 0.833173333,53.6709867 0.499893333,52.8906667 C0.16664,52.11032 0,51.2812267 0,50.40336 C0,49.5092267 0.16664,48.672 0.499893333,47.89168 C0.833173333,47.1113333 1.29242667,46.42856 1.87768,45.8433067 C2.46290667,45.2580533 3.14570667,44.7988 3.92602667,44.4655467 C4.70637333,44.1322667 5.5436,43.9656533 6.43770667,43.9656533 C7.33184,43.9656533 8.16906667,44.1322667 8.94941333,44.4655467 C9.72973333,44.7988 10.4125067,45.2580533 10.99776,45.8433067 C11.5830133,46.42856 12.0422667,47.1113333 12.3755467,47.89168 C12.7088,48.672 12.87544,49.5092267 12.87544,50.40336 C12.87544,50.9235733 12.8185333,51.41128 12.7047467,51.86648 L9.63218667,51.86648 Z M6.43770667,46.8918667 C5.49482667,46.8918667 4.66570667,47.23328 3.95042667,47.9160533 C3.64154667,48.2249333 3.40581333,48.5663467 3.24325333,48.94024 L9.63218667,48.94024 C9.46962667,48.5663467 9.23389333,48.2249333 8.92501333,47.9160533 C8.24224,47.23328 7.41312,46.8918667 6.43770667,46.8918667 Z" id="Fill-5" fill="#545454"></path>
            <path d="M20.3617067,43.9656533 C21.1582933,43.9656533 21.8817333,44.1160267 22.532,44.4167733 C23.1822933,44.71752 23.7390667,45.13208 24.2024,45.6604267 C24.6657067,46.1887733 25.02336,46.8024533 25.27536,47.50152 C25.5273333,48.20056 25.6533333,48.9483733 25.6533333,49.74496 L25.6533333,56.49968 L22.7270933,56.49968 L22.7270933,49.74496 C22.7270933,48.9321067 22.4425867,48.2574667 21.8736,47.7209867 C21.32088,47.16824 20.6543467,46.8918667 19.874,46.8918667 C19.0774133,46.8918667 18.4027733,47.16824 17.8500267,47.7209867 C17.2973067,48.2737067 17.0209333,48.9483733 17.0209333,49.74496 L17.0209333,56.49968 L14.0946933,56.49968 L14.0946933,44.30704 L17.0209333,44.30704 L17.0209333,45.23368 C17.4598667,44.85976 17.9557067,44.55496 18.5084267,44.3192267 C19.0611733,44.0834933 19.6789333,43.9656533 20.3617067,43.9656533 Z" id="Fill-6" fill="#545454"></path>
            <path d="M39.6261333,55.2804267 C39.6261333,56.1582933 39.4594667,56.9873867 39.1261333,57.7677067 C38.7928,58.5480533 38.3336,59.2308267 37.7485333,59.81608 C37.1632,60.4013333 36.4802667,60.86464 35.7,61.2060533 C34.9197333,61.54744 34.0824,61.7181333 33.1882667,61.7181333 C32.4568,61.7181333 31.7658667,61.6043467 31.1157333,61.3767467 C30.4653333,61.1491467 29.8637333,60.824 29.3112,60.4013333 L31.4325333,58.3041867 C31.9528,58.6293333 32.5381333,58.7918933 33.1882667,58.7918933 C34.18,58.7918933 35.0090667,58.4423733 35.6757333,57.7433333 C36.3584,57.0605333 36.6997333,56.2395733 36.6997333,55.2804267 L36.6997333,50.3789867 C36.6997333,49.43608 36.3584,48.6069867 35.6757333,47.89168 C34.9928,47.20888 34.1637333,46.8674933 33.1882667,46.8674933 C32.2456,46.8674933 31.4162667,47.20888 30.7010667,47.89168 C30.0184,48.6069867 29.6768,49.43608 29.6768,50.3789867 C29.6768,51.3543733 30.0184,52.1834933 30.7010667,52.8662667 C31.4162667,53.5490667 32.2456,53.8904533 33.1882667,53.8904533 C33.676,53.8904533 34.1149333,53.8091733 34.5050667,53.6466133 L35.6024,56.37776 C34.8709333,56.6703733 34.0824,56.8166933 33.2370667,56.8166933 L33.1882667,56.8166933 C32.3104,56.8166933 31.4813333,56.6500533 30.7010667,56.3168 C29.9208,55.98352 29.2378667,55.5242667 28.6528,54.9390133 C28.0674667,54.3537867 27.6042667,53.6709867 27.2626667,52.8906667 C26.9213333,52.11032 26.7506667,51.2730933 26.7506667,50.3789867 C26.7506667,49.4848533 26.8970667,48.6476267 27.1896,47.86728 C27.4821333,47.08696 27.8928,46.40416 28.4210667,45.8189333 C28.9493333,45.23368 29.5834667,44.7744267 30.3232,44.4411467 C31.0626667,44.1078933 31.8714667,43.9412533 32.7493333,43.9412533 C33.5946667,43.9412533 34.3426667,44.0672533 34.9928,44.3192267 C35.6432,44.5712 36.2122667,44.88416 36.6997333,45.2580533 L36.6997333,44.30704 L39.6261333,44.30704 L39.6261333,55.2804267 Z" id="Fill-7" fill="#545454"></path>
            <path d="M50.3557333,51.86648 L43.9666667,51.86648 C44.1293333,52.2403733 44.3650667,52.5736533 44.6738667,52.8662667 C45.0152,53.20768 45.3973333,53.4637067 45.82,53.6344 C46.2426667,53.80512 46.6896,53.8904533 47.1610667,53.8904533 C47.8277333,53.8904533 48.4210667,53.7360267 48.9413333,53.4271467 L51.9893333,54.6464 C51.4042667,55.3292 50.6970667,55.8616 49.868,56.2436267 C49.0389333,56.62568 48.1365333,56.8166933 47.1610667,56.8166933 C46.2669333,56.8166933 45.4298667,56.6500533 44.6493333,56.3168 C43.8690667,55.98352 43.1864,55.5242667 42.6010667,54.9390133 C42.0157333,54.3537867 41.5565333,53.6709867 41.2232,52.8906667 C40.8901333,52.11032 40.7234667,51.2812267 40.7234667,50.40336 C40.7234667,49.5092267 40.8901333,48.672 41.2232,47.89168 C41.5565333,47.1113333 42.0157333,46.42856 42.6010667,45.8433067 C43.1864,45.2580533 43.8690667,44.7988 44.6493333,44.4655467 C45.4298667,44.1322667 46.2669333,43.9656533 47.1610667,43.9656533 C48.0552,43.9656533 48.8925333,44.1322667 49.6728,44.4655467 C50.4530667,44.7988 51.136,45.2580533 51.7210667,45.8433067 C52.3064,46.42856 52.7656,47.1113333 53.0989333,47.89168 C53.4322667,48.672 53.5989333,49.5092267 53.5989333,50.40336 C53.5989333,50.9235733 53.5418667,51.41128 53.4282667,51.86648 L50.3557333,51.86648 Z M47.1610667,46.8918667 C46.2181333,46.8918667 45.3890667,47.23328 44.6738667,47.9160533 C44.3650667,48.2249333 44.1293333,48.5663467 43.9666667,48.94024 L50.3557333,48.94024 C50.1930667,48.5663467 49.9573333,48.2249333 49.6485333,47.9160533 C48.9656,47.23328 48.1365333,46.8918667 47.1610667,46.8918667 Z" id="Fill-8" fill="#545454"></path>
            <path d="M61.0850667,43.9656533 C61.8816,43.9656533 62.6050667,44.1160267 63.2554667,44.4167733 C63.9056,44.71752 64.4624,45.13208 64.9258667,45.6604267 C65.3890667,46.1887733 65.7466667,46.8024533 65.9986667,47.50152 C66.2506667,48.20056 66.3768,48.9483733 66.3768,49.74496 L66.3768,56.49968 L63.4504,56.49968 L63.4504,49.74496 C63.4504,48.9321067 63.1661333,48.2574667 62.5970667,47.7209867 C62.0442667,47.16824 61.3778667,46.8918667 60.5973333,46.8918667 C59.8008,46.8918667 59.1261333,47.16824 58.5733333,47.7209867 C58.0208,48.2737067 57.7442667,48.9483733 57.7442667,49.74496 L57.7442667,56.49968 L54.8181333,56.49968 L54.8181333,44.30704 L57.7442667,44.30704 L57.7442667,45.23368 C58.1832,44.85976 58.6792,44.55496 59.2317333,44.3192267 C59.7845333,44.0834933 60.4024,43.9656533 61.0850667,43.9656533 Z" id="Fill-9" fill="#545454"></path>
            <path d="M74.1069333,43.9656533 C74.9034667,43.9656533 75.6269333,44.1160267 76.2770667,44.4167733 C76.9274667,44.71752 77.4842667,45.13208 77.9474667,45.6604267 C78.4109333,46.1887733 78.7685333,46.8024533 79.0205333,47.50152 C79.2725333,48.20056 79.3984,48.9483733 79.3984,49.74496 L79.3984,56.49968 L76.4722667,56.49968 L76.4722667,49.74496 C76.4722667,49.3548 76.3992,48.9890133 76.2528,48.6476267 C76.1064,48.3062133 75.8952,47.9973333 75.6186667,47.7209867 C75.0661333,47.16824 74.3994667,46.8918667 73.6192,46.8918667 C72.8226667,46.8918667 72.148,47.16824 71.5952,47.7209867 C71.0424,48.2737067 70.7661333,48.9483733 70.7661333,49.74496 L70.7661333,56.49968 L67.84,56.49968 L67.84,39.4299733 L70.7661333,39.4299733 L70.7661333,45.2824533 C71.2050667,44.8922933 71.7008,44.57528 72.2536,44.3314133 C72.8064,44.0875733 73.424,43.9656533 74.1069333,43.9656533 Z" id="Fill-10" fill="#545454"></path>
            <path d="M93.3712,44.28264 L93.3712,56.49968 L90.4450667,56.49968 L90.4450667,50.40336 C90.4450667,49.4279467 90.1037333,48.5988533 89.4208,47.9160533 C88.7381333,47.23328 87.9090667,46.8918667 86.9336,46.8918667 C86.4621333,46.8918667 86.0109333,46.98128 85.5802667,47.1601067 C85.1493333,47.3389333 84.7714667,47.5909333 84.4461333,47.9160533 C83.7634667,48.5988533 83.4221333,49.4279467 83.4221333,50.40336 C83.4221333,51.3625067 83.7634667,52.1834933 84.4461333,52.8662667 C84.7714667,53.20768 85.1493333,53.4637067 85.5802667,53.6344 C86.0109333,53.80512 86.4621333,53.8904533 86.9336,53.8904533 C87.4213333,53.8904533 87.8602667,53.8091733 88.2504,53.6466133 L89.2989333,56.25584 C88.5512,56.6297333 87.6813333,56.8166933 86.6896,56.8166933 C85.7954667,56.8166933 84.9706667,56.6500533 84.2146667,56.3168 C83.4586667,55.98352 82.8042667,55.5242667 82.2514667,54.9390133 C81.6989333,54.3537867 81.268,53.6709867 80.9592,52.8906667 C80.6504,52.11032 80.4957333,51.2812267 80.4957333,50.40336 C80.4957333,49.5092267 80.6504,48.672 80.9592,47.89168 C81.268,47.1113333 81.6989333,46.42856 82.2514667,45.8433067 C82.8042667,45.2580533 83.4586667,44.7988 84.2146667,44.4655467 C84.9706667,44.1322667 85.7954667,43.9656533 86.6896,43.9656533 C87.4864,43.9656533 88.1933333,44.0875733 88.8112,44.3314133 C89.4290667,44.57528 89.9736,44.88416 90.4450667,45.2580533 L90.4450667,44.28264 L93.3712,44.28264 Z" id="Fill-11" fill="#545454"></path>
            <path d="M98.0045333,45.23368 C98.4597333,44.85976 98.9757333,44.55088 99.5530667,44.30704 C100.130133,44.0631733 100.784267,43.9412533 101.516,43.9412533 L101.516,46.8674933 C100.540533,46.8674933 99.7114667,47.20888 99.0285333,47.89168 C98.3458667,48.6069867 98.0045333,49.43608 98.0045333,50.3789867 L98.0045333,56.49968 L95.0781333,56.49968 L95.0781333,44.28264 L98.0045333,44.28264 L98.0045333,45.23368 Z" id="Fill-12" fill="#545454"></path>
            <polygon id="Fill-13" fill="#545454" points="102.857067 56.49968 105.783307 56.49968 105.783307 43.9412533 102.857067 43.9412533"></polygon>
            <path d="M120,44.28264 L120,56.49968 L117.073867,56.49968 L117.073867,50.40336 C117.073867,49.4279467 116.732267,48.5988533 116.0496,47.9160533 C115.366667,47.23328 114.5376,46.8918667 113.5624,46.8918667 C113.090933,46.8918667 112.639733,46.98128 112.2088,47.1601067 C111.778133,47.3389333 111.4,47.5909333 111.074933,47.9160533 C110.392267,48.5988533 110.050933,49.4279467 110.050933,50.40336 C110.050933,51.3625067 110.392267,52.1834933 111.074933,52.8662667 C111.4,53.20768 111.778133,53.4637067 112.2088,53.6344 C112.639733,53.80512 113.090933,53.8904533 113.5624,53.8904533 C114.049867,53.8904533 114.4888,53.8091733 114.8792,53.6466133 L115.927733,56.25584 C115.179733,56.6297333 114.310133,56.8166933 113.3184,56.8166933 C112.424267,56.8166933 111.5992,56.6500533 110.8432,56.3168 C110.087467,55.98352 109.433067,55.5242667 108.880267,54.9390133 C108.327467,54.3537867 107.8968,53.6709867 107.588,52.8906667 C107.278933,52.11032 107.124533,51.2812267 107.124533,50.40336 C107.124533,49.5092267 107.278933,48.672 107.588,47.89168 C107.8968,47.1113333 108.327467,46.42856 108.880267,45.8433067 C109.433067,45.2580533 110.087467,44.7988 110.8432,44.4655467 C111.5992,44.1322667 112.424267,43.9656533 113.3184,43.9656533 C114.114933,43.9656533 114.822133,44.0875733 115.44,44.3314133 C116.0576,44.57528 116.6024,44.88416 117.073867,45.2580533 L117.073867,44.28264 L120,44.28264 Z" id="Fill-14" fill="#545454"></path>
        </g>
    </g>
</svg>
